<svg width="110" height="24" viewBox="0 0 110 24" fill="none" xmlns="http://www.w3.org/2000/svg">
<path d="M0 17.1103H4.4943V0H0V17.1103Z" fill="white"/>
<path d="M8.0347 17.1103H11.6849V11.4068C11.6849 10.4943 12.3921 9.78707 13.4187 9.78707C14.1944 9.78707 14.8788 10.4259 14.8788 11.4068V17.1103H18.3009V11.4068C18.3009 8.48669 15.951 6.36502 13.3503 6.36502C12.7343 6.36502 12.164 6.5019 11.6849 6.68441V6.61597H8.0347V17.1103Z" fill="white"/>
<path d="M24.4851 17.3384C26.4471 17.3384 28.546 16.038 28.546 14.0532C28.546 11.4297 25.854 10.6084 24.5536 10.6084C23.892 10.6084 23.3901 10.2662 23.3901 9.76426C23.3901 9.23954 23.892 8.94297 24.4395 8.94297C25.1924 8.94297 25.5574 9.37643 25.5574 9.76426H28.546C28.546 7.8251 26.4928 6.38783 24.4395 6.38783C22.4091 6.38783 20.3787 7.64259 20.3787 9.80989C20.3787 11.8631 22.4547 13.1407 24.4395 13.1407C25.1467 13.1407 25.5574 13.4601 25.5574 13.9848C25.5574 14.4867 25.1696 14.8289 24.508 14.8289C23.8007 14.8289 23.3673 14.4639 23.3673 13.9848H20.3559C20.3559 15.673 21.9528 17.3384 24.4851 17.3384Z" fill="white"/>
<path d="M36.9179 6.61597H35.1156V3.46768H31.4654V6.61597H29.6631V9.37643H31.4654V17.1103H35.1156V9.37643H36.9179V6.61597Z" fill="white"/>
<path d="M46.8912 6.61597V7.11787C46.0699 6.63878 45.1574 6.38783 44.1536 6.38783C41.0965 6.38783 38.6327 8.8289 38.6327 11.8631C38.6327 14.9202 41.0965 17.3384 44.1536 17.3384C45.1574 17.3384 46.0699 17.0875 46.8912 16.6084V17.1103H50.6098V6.61597H46.8912ZM44.1536 13.962C43.0585 13.962 42.1232 13.0494 42.1232 11.9087C42.1232 10.7909 43.0585 9.87833 44.1536 9.87833C45.2715 9.87833 46.1156 10.7909 46.1156 11.9087C46.1156 13.0494 45.2715 13.962 44.1536 13.962Z" fill="white"/>
<path d="M59.6186 17.1103H64.1129V12.5703H66.919C70.3182 12.5703 73.1243 9.74145 73.1243 6.29658C73.1243 2.8289 70.2954 0 66.8277 0H59.6186V17.1103ZM64.1129 8.69202V3.78707H66.8961C68.265 3.78707 69.36 4.88213 69.36 6.25095C69.36 7.61977 68.265 8.69202 66.8961 8.69202H64.1129Z" fill="white"/>
<path d="M75.4064 17.1103H79.0566V0H75.4064V17.1103Z" fill="white"/>
<path d="M105.813 6.61597V12.251C105.813 13.1407 105.083 13.8479 104.056 13.8479C103.28 13.8479 102.573 13.2091 102.573 12.251V6.61597H99.1282V12.251C99.1282 15.1939 101.501 17.3384 104.102 17.3384C104.74 17.3384 105.311 17.2015 105.813 17.0418V18.0684C105.813 19.4601 105.014 20.327 103.577 20.327H101.022V24H103.508C107.09 24 109.463 21.3536 109.463 18.0684V6.61597H105.813Z" fill="white"/>
<path d="M96.9202 9.18147L84.5627 16.4819V1.881L96.9202 9.18147Z" fill="url(#paint0_linear_157_925)"/>
<defs>
<linearGradient id="paint0_linear_157_925" x1="96.9201" y1="9.18147" x2="80.4436" y2="9.18147" gradientUnits="userSpaceOnUse">
<stop stop-color="#FF9966"/>
<stop offset="1" stop-color="#FF5E62"/>
</linearGradient>
</defs>
</svg>
